<svg xmlns="http://www.w3.org/2000/svg" xmlns:inkscape="http://www.inkscape.org/namespaces/inkscape" width="1536" height="1024" viewBox="0 0 1536 1024">
<title>湘 — 可編輯向量標誌</title><desc>依照原始點陣圖重建；所有圖案皆為可編輯路徑，無嵌入點陣圖。透明背景。</desc>
<defs>
<linearGradient id="blue" gradientUnits="userSpaceOnUse" x1="475" y1="400" x2="1040" y2="670"><stop stop-color="#003961"/><stop offset=".48" stop-color="#3278aa"/><stop offset="1" stop-color="#80bdd0"/></linearGradient>
<linearGradient id="arch" gradientUnits="userSpaceOnUse" x1="490" y1="330" x2="1020" y2="300"><stop stop-color="#003b68"/><stop offset=".22" stop-color="#00629b"/><stop offset=".43" stop-color="#74bce9"/><stop offset=".72" stop-color="#d6c69e"/><stop offset="1" stop-color="#efc88f"/></linearGradient>
<linearGradient id="book" gradientUnits="userSpaceOnUse" x1="390" y1="600" x2="700" y2="760"><stop stop-color="#064774"/><stop offset="1" stop-color="#6caed1"/></linearGradient>
<linearGradient id="bookright" gradientUnits="userSpaceOnUse" x1="1130" y1="586" x2="859" y2="733"><stop stop-color="#176999"/><stop offset="1" stop-color="#68a9cf"/></linearGradient>
<linearGradient id="bottom" x1="0" y1="0" x2="1" y2="1"><stop stop-color="#003e6d"/><stop offset=".7" stop-color="#176596"/><stop offset="1" stop-color="#005184"/></linearGradient>
<linearGradient id="letter" gradientUnits="userSpaceOnUse" x1="727" y1="605" x2="801" y2="754"><stop stop-color="#003b67"/><stop offset=".52" stop-color="#00517c"/><stop offset="1" stop-color="#54b1d3"/></linearGradient>
</defs>
<g aria-label="天空拱形"><title>天空拱形</title><path fill="url(#arch)" d="M482 442 C499 290 624 190 768 190 C913 190 1031 294 1050 442 C1015 298 898 209 768 209 C637 209 522 294 482 442 Z"/></g>
<g aria-label="左側橋面"><title>左側橋面</title><path fill="url(#blue)" d="M472.5 473 Q521 440 571.5 418.5 L571.5 553 Q514 535 472.5 539.5 Z"/></g>
<g aria-label="右側橋面"><title>右側橋面</title><path fill="url(#blue)" d="M961 418 Q1014 441 1062.5 473 L1062.5 539.5 Q1015 535 961 553 Z"/></g>
<g aria-label="中央橋拱"><title>中央橋拱</title><path fill="url(#blue)" d="M628 397.5 Q766 350 904.5 397 L904.5 476 C848 374 687 372 628 476 Z"/></g>
<g aria-label="左側人物頭部"><title>左側人物頭部</title><path fill="url(#blue)" d="M621.5 337.5 A21.5 21.5 0 1 1 578.5 337.5 A21.5 21.5 0 1 1 621.5 337.5 Z"/></g>
<g aria-label="左側人物身體"><title>左側人物身體</title><path fill="url(#blue)" d="M580.5 556 L580.5 384 C580.5 364 618.5 364 618.5 384 L618.5 572 Z"/></g>
<g aria-label="右側人物頭部"><title>右側人物頭部</title><path fill="url(#blue)" d="M954.5 337.5 A21.5 21.5 0 1 1 911.5 337.5 A21.5 21.5 0 1 1 954.5 337.5 Z"/></g>
<g aria-label="右側人物身體"><title>右側人物身體</title><path fill="url(#blue)" d="M913.5 572 L913.5 384 C913.5 364 951.5 364 951.5 384 L951.5 556 Z"/></g>
<g aria-label="河流左岸"><title>河流左岸</title><path fill="url(#blue)" d="M628 512 C686 483 757 471 835 488 C778 487 725 500 721 522 C716 547 792 554 806 591 L778 591 C763 583 747 582 735 589 C719 601 710 579 683 590 C675 595 665 594 657 592 L628 575 Z"/></g>
<g aria-label="河流右岸"><title>河流右岸</title><path fill="url(#blue)" d="M840 489 Q876 497 904.5 512 L904.5 577 C871 540 811 536 779 522 C748 508 789 493 840 489 Z"/></g>
<g aria-label="書本左上頁"><title>書本左上頁</title><path fill="url(#book)" d="M380 677 L433.5 583 C501 554 646 600 667 687 C585 629 478 626 380 677 Z"/></g>
<g aria-label="書本右上頁"><title>書本右上頁</title><path fill="url(#bookright)" d="M868.5 687 C887 603 1031 554 1102.5 583 L1156 677 C1057 626 951 629 868.5 687 Z"/></g>
<g aria-label="書本左下頁"><title>書本左下頁</title><path fill="url(#bottom)" d="M356 720.5 L367.5 702 C468 635 573 652 650 692 C689 711 680 731 709 749 C736 765 747 780 761 807 C647 704 486 660 356 720.5 Z"/></g>
<g aria-label="書本右下頁"><title>書本右下頁</title><path fill="url(#bottom)" d="M773 807 C789 777 802 764 827 749 C854 732 854 712 873 699 C969 641 1081 648 1168 701 L1180 720.5 C1047 660 892 704 773 807 Z"/></g>
<g aria-label="湘字外框"><title>湘字 — 可編輯外框</title><path fill="url(#letter)" fill-rule="evenodd" d="M744.00 599.70 L745.00 599.51 L746.00 599.65 L747.00 600.35 L748.00 600.50 L753.00 600.50 L754.00 600.65 L755.00 601.35 L756.00 601.50 L760.00 601.50 L761.00 601.65 L762.00 602.35 L763.00 602.50 L766.00 602.50 L767.00 602.65 L768.00 603.36 L769.00 603.69 L769.31 604.00 L769.49 605.00 L769.35 606.00 L768.50 607.00 L767.00 608.36 L766.00 608.64 L765.00 609.55 L764.65 610.00 L764.50 611.00 L764.50 636.00 L764.54 637.00 L765.00 638.08 L766.00 637.49 L767.36 636.00 L767.64 635.00 L768.50 634.00 L769.36 633.00 L769.64 632.00 L770.50 631.00 L773.00 628.65 L774.00 628.65 L775.00 629.50 L779.36 634.00 L779.64 635.00 L780.50 636.00 L785.57 641.00 L786.00 641.97 L786.32 641.00 L786.50 639.00 L786.50 615.00 L786.35 614.00 L785.65 613.00 L785.50 612.00 L785.50 610.00 L785.65 609.00 L786.00 608.55 L787.00 607.85 L788.00 608.36 L790.00 608.65 L791.00 609.35 L793.00 609.65 L794.00 610.36 L795.00 610.64 L796.00 611.35 L798.00 611.65 L799.00 612.36 L800.00 612.64 L801.00 613.35 L803.00 613.65 L804.00 614.36 L805.00 614.64 L806.00 615.35 L807.00 615.50 L822.00 615.50 L823.00 615.35 L824.00 614.50 L826.36 612.00 L826.64 611.00 L827.50 610.00 L832.00 605.51 L833.00 604.85 L834.54 606.00 L835.00 606.36 L836.00 606.64 L837.00 607.50 L838.00 608.36 L839.00 608.64 L840.00 609.50 L842.00 611.36 L843.00 611.64 L844.00 612.50 L846.00 614.36 L847.00 614.64 L848.00 615.50 L850.00 617.36 L851.00 617.64 L852.00 618.55 L852.35 619.00 L852.49 620.00 L852.35 621.00 L851.50 622.00 L849.00 624.36 L848.00 624.64 L847.00 625.55 L846.65 626.00 L846.50 627.00 L846.50 659.00 L846.50 709.00 L846.35 710.00 L845.65 711.00 L845.50 712.00 L845.50 713.00 L845.35 714.00 L844.64 715.00 L844.36 716.00 L843.65 717.00 L843.35 719.00 L842.64 720.00 L842.36 721.00 L841.50 722.00 L840.64 723.00 L840.36 724.00 L839.64 725.00 L839.36 726.00 L838.50 727.00 L836.64 729.00 L836.36 730.00 L835.50 731.00 L830.00 736.36 L829.00 736.64 L828.00 737.50 L827.00 738.49 L825.92 739.00 L825.54 738.00 L825.50 737.00 L825.30 736.00 L825.00 735.70 L824.00 735.50 L808.00 735.50 L807.00 735.70 L806.70 736.00 L806.50 737.00 L806.50 739.00 L806.35 740.00 L805.64 741.00 L805.36 742.00 L804.50 743.00 L803.00 744.36 L802.00 744.64 L801.00 745.50 L800.00 746.36 L799.00 746.64 L798.00 747.35 L796.00 747.65 L795.00 748.35 L793.00 748.65 L792.00 749.35 L791.00 749.50 L788.00 749.50 L787.00 749.30 L786.70 749.00 L786.50 748.00 L786.50 722.00 L786.46 688.00 L786.32 687.00 L786.00 686.03 L785.57 687.00 L785.00 687.51 L784.65 688.00 L784.36 689.00 L783.50 690.00 L781.00 692.36 L780.00 692.64 L779.00 693.35 L778.00 693.50 L775.00 693.50 L774.00 693.35 L773.00 692.50 L770.64 690.00 L770.36 689.00 L769.65 688.00 L769.50 687.00 L769.50 686.00 L769.35 685.00 L768.65 684.00 L768.50 683.00 L768.50 681.00 L768.35 680.00 L767.65 679.00 L767.50 678.00 L767.50 677.00 L767.35 676.00 L766.64 675.00 L766.35 673.00 L766.00 672.51 L765.44 672.00 L765.00 670.04 L764.74 671.00 L764.50 676.00 L764.35 742.00 L763.64 743.00 L763.36 744.00 L762.64 745.00 L762.31 746.00 L762.00 746.31 L761.00 746.64 L760.00 747.50 L759.00 748.36 L758.00 748.64 L757.00 749.35 L755.00 749.65 L754.00 750.35 L753.00 750.50 L751.00 750.50 L750.00 750.65 L749.00 751.35 L748.00 751.50 L746.00 751.50 L745.00 751.35 L744.00 750.45 L743.65 750.00 L743.50 749.00 L743.50 717.00 L743.46 693.00 L743.32 692.00 L743.00 691.03 L742.57 692.00 L741.51 693.00 L740.64 694.00 L740.36 695.00 L739.50 696.00 L738.64 697.00 L738.36 698.00 L737.50 699.00 L736.64 700.00 L736.36 701.00 L735.50 702.00 L732.64 705.00 L732.36 706.00 L731.50 707.00 L720.46 718.00 L720.00 718.36 L719.00 718.63 L717.91 719.00 L717.54 718.00 L717.65 717.00 L718.36 716.00 L718.64 715.00 L719.50 714.00 L720.36 713.00 L720.64 712.00 L721.36 711.00 L721.64 710.00 L722.36 709.00 L722.64 708.00 L723.36 707.00 L723.64 706.00 L724.36 705.00 L724.64 704.00 L725.35 703.00 L725.65 701.00 L726.36 700.00 L726.64 699.00 L727.35 698.00 L727.65 696.00 L728.36 695.00 L728.64 694.00 L729.35 693.00 L729.65 691.00 L730.35 690.00 L730.65 688.00 L731.35 687.00 L731.65 685.00 L732.35 684.00 L732.65 682.00 L733.35 681.00 L733.50 680.00 L733.50 679.00 L733.65 678.00 L734.35 677.00 L734.65 675.00 L735.35 674.00 L735.50 673.00 L735.50 672.00 L735.65 671.00 L736.35 670.00 L736.50 669.00 L736.50 668.00 L736.65 667.00 L737.35 666.00 L737.50 665.00 L737.50 664.00 L737.65 663.00 L738.35 662.00 L738.50 661.00 L738.50 659.00 L738.65 658.00 L739.35 657.00 L739.50 656.00 L739.50 655.00 L739.65 654.00 L740.35 653.00 L740.50 652.00 L740.50 650.00 L740.65 649.00 L741.35 648.00 L741.49 647.00 L741.30 646.00 L741.00 645.70 L740.00 645.50 L729.00 645.50 L728.00 645.69 L727.69 646.00 L727.36 647.00 L726.65 648.00 L726.50 649.00 L726.50 650.00 L726.35 651.00 L725.65 652.00 L725.35 654.00 L724.65 655.00 L724.50 656.00 L724.50 657.00 L724.35 658.00 L723.65 659.00 L723.50 660.00 L723.50 661.00 L723.35 662.00 L722.65 663.00 L722.50 664.00 L722.50 665.00 L722.35 666.00 L721.65 667.00 L721.50 668.00 L721.50 670.00 L721.35 671.00 L720.65 672.00 L720.50 673.00 L720.50 674.00 L720.35 675.00 L719.65 676.00 L719.50 677.00 L719.50 679.00 L719.35 680.00 L718.65 681.00 L718.50 682.00 L718.50 683.00 L718.35 684.00 L717.65 685.00 L717.50 686.00 L717.50 688.00 L717.35 689.00 L716.65 690.00 L716.50 691.00 L716.50 692.00 L716.35 693.00 L715.65 694.00 L715.50 695.00 L715.50 697.00 L715.35 698.00 L714.65 699.00 L714.50 700.00 L714.50 702.00 L714.35 703.00 L713.65 704.00 L713.50 705.00 L713.50 715.00 L713.65 716.00 L714.35 717.00 L714.65 719.00 L715.35 720.00 L715.65 722.00 L716.35 723.00 L716.65 725.00 L717.35 726.00 L717.50 727.00 L717.50 729.00 L717.65 730.00 L718.35 731.00 L718.50 732.00 L718.50 735.00 L718.35 736.00 L717.65 737.00 L717.50 738.00 L717.50 739.00 L717.35 740.00 L716.50 741.00 L714.00 743.35 L713.00 743.49 L712.00 743.35 L711.00 742.50 L710.00 741.64 L709.00 741.36 L708.00 740.50 L705.00 737.64 L704.00 737.36 L703.00 736.45 L702.64 736.00 L702.36 735.00 L701.50 734.00 L699.64 732.00 L699.36 731.00 L698.64 730.00 L698.36 729.00 L697.65 728.00 L697.35 726.00 L696.65 725.00 L696.50 724.00 L696.50 717.00 L696.35 716.00 L695.65 715.00 L695.35 713.00 L694.64 712.00 L694.36 711.00 L693.64 710.00 L693.36 709.00 L692.50 708.00 L690.00 705.64 L689.00 705.36 L688.00 704.64 L687.00 704.31 L686.69 704.00 L686.51 703.00 L686.70 702.00 L687.00 701.70 L688.00 701.50 L695.00 701.50 L696.00 701.35 L697.00 700.50 L701.36 696.00 L701.64 695.00 L702.35 694.00 L702.65 692.00 L703.36 691.00 L703.64 690.00 L704.36 689.00 L704.64 688.00 L705.36 687.00 L705.64 686.00 L706.35 685.00 L706.65 683.00 L707.36 682.00 L707.64 681.00 L708.36 680.00 L708.64 679.00 L709.36 678.00 L709.64 677.00 L710.36 676.00 L710.64 675.00 L711.35 674.00 L711.65 672.00 L712.36 671.00 L712.64 670.00 L713.36 669.00 L713.64 668.00 L714.35 667.00 L714.65 665.00 L715.36 664.00 L715.64 663.00 L716.36 662.00 L716.64 661.00 L717.36 660.00 L717.64 659.00 L718.35 658.00 L718.65 656.00 L719.36 655.00 L719.64 654.00 L720.35 653.00 L720.65 651.00 L721.36 650.00 L721.64 649.00 L722.35 648.00 L722.65 646.00 L723.36 645.00 L723.64 644.00 L724.35 643.00 L724.65 641.00 L725.36 640.00 L725.64 639.00 L726.35 638.00 L726.65 636.00 L727.36 635.00 L727.64 634.00 L728.35 633.00 L728.65 631.00 L729.36 630.00 L729.64 629.00 L730.36 628.00 L730.65 627.00 L731.00 626.56 L732.08 626.00 L732.46 627.00 L732.50 629.00 L732.35 630.00 L731.65 631.00 L731.50 632.00 L731.50 633.00 L731.35 634.00 L730.65 635.00 L730.50 636.00 L730.50 637.00 L730.35 638.00 L729.65 639.00 L729.70 640.00 L730.00 640.30 L731.00 640.49 L742.00 640.50 L743.00 640.30 L743.30 640.00 L743.50 639.00 L743.50 613.00 L743.50 601.00 L743.70 600.00 L744.00 599.70 L744.00 599.70 Z M692.00 603.92 L693.00 603.54 L696.00 603.50 L699.00 603.50 L700.00 603.65 L701.00 604.35 L702.00 604.50 L705.00 604.50 L706.00 604.65 L707.00 605.35 L709.00 605.65 L710.00 606.35 L712.00 606.65 L713.00 607.36 L714.00 607.64 L715.00 608.36 L716.00 608.64 L717.00 609.36 L718.00 609.64 L719.00 610.50 L722.36 614.00 L722.64 615.00 L723.36 616.00 L723.64 617.00 L724.35 618.00 L724.50 619.00 L724.50 625.00 L724.35 626.00 L723.64 627.00 L723.36 628.00 L722.50 629.00 L719.00 632.36 L718.00 632.64 L717.00 633.35 L716.00 633.50 L710.00 633.50 L709.00 633.35 L708.00 632.50 L707.00 631.64 L706.00 631.31 L705.69 631.00 L705.36 630.00 L704.65 629.00 L704.35 627.00 L703.65 626.00 L703.50 625.00 L703.50 624.00 L703.35 623.00 L702.65 622.00 L702.35 620.00 L701.64 619.00 L701.36 618.00 L700.64 617.00 L700.36 616.00 L699.64 615.00 L699.36 614.00 L698.64 613.00 L698.36 612.00 L697.50 611.00 L696.64 610.00 L696.36 609.00 L695.50 608.00 L692.51 605.00 L692.00 603.92 L692.00 603.92 Z M807.00 620.70 L806.70 621.00 L806.50 622.00 L806.50 648.00 L806.50 652.00 L806.70 653.00 L807.00 653.30 L808.00 653.50 L824.00 653.50 L825.00 653.30 L825.30 653.00 L825.50 652.00 L825.50 626.00 L825.50 622.00 L825.30 621.00 L825.00 620.70 L824.00 620.50 L808.00 620.50 L807.00 620.70 L807.00 620.70 Z M684.00 640.70 L685.00 640.51 L688.00 640.50 L689.00 640.65 L690.00 641.35 L691.00 641.50 L694.00 641.50 L695.00 641.65 L696.00 642.35 L697.00 642.50 L698.00 642.50 L699.00 642.65 L700.00 643.35 L702.00 643.65 L703.00 644.36 L704.00 644.64 L705.00 645.36 L706.00 645.64 L707.00 646.50 L712.36 652.00 L712.64 653.00 L713.35 654.00 L713.50 655.00 L713.50 661.00 L713.35 662.00 L712.64 663.00 L712.36 664.00 L711.50 665.00 L707.00 669.35 L706.00 669.50 L700.00 669.50 L699.00 669.35 L698.00 668.50 L695.64 666.00 L695.36 665.00 L694.65 664.00 L694.50 663.00 L694.50 662.00 L694.35 661.00 L693.65 660.00 L693.50 659.00 L693.50 658.00 L693.35 657.00 L692.64 656.00 L692.36 655.00 L691.64 654.00 L691.36 653.00 L690.64 652.00 L690.36 651.00 L689.64 650.00 L689.36 649.00 L688.50 648.00 L686.64 646.00 L686.36 645.00 L685.50 644.00 L683.65 642.00 L683.70 641.00 L684.00 640.70 L684.00 640.70 Z M786.00 644.92 L785.00 645.36 L784.00 645.50 L766.00 645.50 L765.00 645.70 L764.70 646.00 L764.50 647.00 L764.50 659.00 L764.69 660.00 L765.00 660.31 L766.00 660.64 L767.00 661.36 L768.00 661.64 L769.00 662.36 L770.00 662.64 L771.00 663.36 L772.00 663.64 L773.00 664.36 L774.00 664.64 L775.00 665.36 L776.00 665.64 L777.00 666.50 L779.00 668.36 L780.00 668.69 L780.31 669.00 L780.64 670.00 L781.50 671.00 L783.36 673.00 L783.64 674.00 L784.51 675.00 L785.56 676.00 L785.73 677.00 L785.74 678.00 L786.00 678.96 L786.26 678.00 L786.33 676.00 L786.50 674.00 L786.46 646.00 L786.00 644.92 L786.00 644.92 Z M807.00 658.70 L806.70 659.00 L806.50 660.00 L806.50 686.00 L806.50 690.00 L806.70 691.00 L807.00 691.30 L808.00 691.50 L823.00 691.50 L824.00 691.35 L825.00 690.45 L825.35 690.00 L825.50 689.00 L825.50 660.00 L825.30 659.00 L825.00 658.70 L824.00 658.50 L808.00 658.50 L807.00 658.70 L807.00 658.70 Z M807.00 696.70 L806.70 697.00 L806.50 698.00 L806.50 724.00 L806.50 729.00 L806.70 730.00 L807.00 730.30 L808.00 730.50 L824.00 730.50 L825.00 730.30 L825.30 730.00 L825.50 729.00 L825.50 703.00 L825.50 698.00 L825.30 697.00 L825.00 696.70 L824.00 696.50 L808.00 696.50 L807.00 696.70 L807.00 696.70 Z"/></g>
</svg>